Coordinates
version=1
nRows=9
nColumns=24
inDegrees=yes

Units are S.I. units (second, meters, Newtons, ...)
Angles are in degrees.

endheader
time	pelvis_tilt	pelvis_list	pelvis_rotation	pelvis_tx	pelvis_ty	pelvis_tz	hip_flexion_r	hip_adduction_r	hip_rotation_r	knee_angle_r	ankle_angle_r	subtalar_angle_r	mtp_angle_r	hip_flexion_l	hip_adduction_l	hip_rotation_l	knee_angle_l	ankle_angle_l	subtalar_angle_l	mtp_angle_l	lumbar_extension	lumbar_bending	lumbar_rotation
      2.23500000	     -7.11369518	      3.45347432	    357.60674178	     -0.25404443	      1.39003849	     -1.02672533	     31.45545391	     -2.28636649	      2.15191113	    -30.23384601	      3.45545233	     -3.03959313	     12.35572228	      5.03355745	      8.54674145	      2.14080856	     -6.93325001	      2.32069447	     -6.21379816	     16.49118873	     -7.77548899	      2.19112614	      9.45017820
      2.24000000	     -7.12291771	      3.47220686	    357.73390193	     -0.24908334	      1.38955857	     -1.02671298	     31.25564063	     -2.34948457	      2.16980144	    -28.23181797	      3.02593032	     -3.05445013	     12.11195596	      4.65167916	      8.58306590	      2.26540823	     -6.79922472	      2.56697252	     -6.07477992	     16.45119944	     -7.73301853	      2.14618290	      9.38242228
      2.24500000	     -7.19219489	      3.51549197	    357.88866836	     -0.24410848	      1.38894506	     -1.02672640	     31.10144650	     -2.45065603	      2.19315618	    -26.20946623	      2.59503709	     -3.04070878	     11.92205731	      4.34656944	      8.64740877	      2.45448739	     -6.68941812	      2.82983026	     -5.99596773	     16.44025302	     -7.61395586	      2.06345894	      9.34383322
      2.25000000	     -7.19462179	      3.56318163	    358.03998237	     -0.23917818	      1.38838099	     -1.02667315	     30.83935881	     -2.55213523	      2.27344964	    -24.13028253	      2.10247160	     -3.05350320	     11.76309783	      3.97332578	      8.71114334	      2.60938421	     -6.58604766	      3.05163705	     -5.85705450	     16.37411024	     -7.59900123	      1.97725848	      9.22734754
      2.25500000	     -7.20986319	      3.63401989	    358.18503110	     -0.23420359	      1.38773205	     -1.02661618	     30.57611363	     -2.67933601	      2.37247397	    -22.04498869	      1.60896043	     -3.04119917	     11.68563981	      3.60359745	      8.79941293	      2.74181953	     -6.46590960	      3.30582482	     -5.72736137	     16.27702712	     -7.56025980	      1.87210428	      9.11847123
      2.26000000	     -7.27364025	      3.71571088	    358.34653219	     -0.22924790	      1.38699174	     -1.02656190	     30.35089164	     -2.82399686	      2.50397321	    -19.95869837	      1.12002816	     -3.01224958	     11.65817045	      3.30385084	      8.89794708	      2.91804797	     -6.38037543	      3.56528936	     -5.62084724	     16.17497709	     -7.46979677	      1.74956113	      9.01302045
      2.26500000	     -7.33011599	      3.80157056	    358.51381949	     -0.22430572	      1.38621700	     -1.02650788	     30.09827505	     -2.98015935	      2.66548932	    -17.86717485	      0.64324973	     -2.97361201	     11.69226172	      3.00080309	      9.00084935	      3.10932385	     -6.30544454	      3.82689963	     -5.53038165	     16.06073769	     -7.39548459	      1.62199682	      8.90197096
      2.27000000	     -7.41301762	      3.89634694	    358.70118617	     -0.21934951	      1.38539123	     -1.02647096	     29.85579895	     -3.15981843	      2.83464317	    -15.78024582	      0.14942879	     -2.94498081	     11.76217371	      2.73232850	      9.11372327	      3.32923841	     -6.24554618	      4.07981234	     -5.46382478	     15.94801860	     -7.29101660	      1.48332712	      8.76807212
      2.27500000	     -7.47421445	      4.00647272	    358.90472510	     -0.21440646	      1.38453113	     -1.02644867	     29.57748873	     -3.37084457	      3.00703093	    -13.71456538	     -0.33518085	     -2.90834787	     11.82196073	      2.44222531	      9.24459506	      3.57942659	     -6.19082925	      4.32470940	     -5.42758547	     15.85811780	     -7.21897141	      1.32520524	      8.61576462
